<svg width="53" height="53" viewBox="0 0 53 53" fill="none" xmlns="http://www.w3.org/2000/svg">
<rect x="1.82812" y="2" width="49" height="49" rx="24.5" stroke="url(#paint0_linear_1225_13)" stroke-width="2.8"/>
<path d="M26.3283 25.996C25.6122 25.996 24.9255 25.7305 24.4191 25.258C23.9128 24.7854 23.6283 24.1444 23.6283 23.476C23.6283 22.8077 23.9128 22.1667 24.4191 21.6941C24.9255 21.2215 25.6122 20.956 26.3283 20.956C27.0444 20.956 27.7312 21.2215 28.2375 21.6941C28.7438 22.1667 29.0283 22.8077 29.0283 23.476C29.0283 23.807 28.9585 24.1347 28.8228 24.4404C28.6871 24.7461 28.4882 25.0239 28.2375 25.258C27.9868 25.492 27.6891 25.6776 27.3616 25.8042C27.034 25.9309 26.6829 25.996 26.3283 25.996ZM26.3283 16.42C24.3233 16.42 22.4004 17.1634 20.9826 18.4867C19.5648 19.81 18.7683 21.6047 18.7683 23.476C18.7683 28.768 26.3283 36.58 26.3283 36.58C26.3283 36.58 33.8883 28.768 33.8883 23.476C33.8883 21.6047 33.0918 19.81 31.674 18.4867C30.2563 17.1634 28.3333 16.42 26.3283 16.42Z" fill="#4ECB71"/>
<path d="M26.3283 25.996C25.6122 25.996 24.9255 25.7305 24.4191 25.258C23.9128 24.7854 23.6283 24.1444 23.6283 23.476C23.6283 22.8077 23.9128 22.1667 24.4191 21.6941C24.9255 21.2215 25.6122 20.956 26.3283 20.956C27.0444 20.956 27.7312 21.2215 28.2375 21.6941C28.7438 22.1667 29.0283 22.8077 29.0283 23.476C29.0283 23.807 28.9585 24.1347 28.8228 24.4404C28.6871 24.7461 28.4882 25.0239 28.2375 25.258C27.9868 25.492 27.6891 25.6776 27.3616 25.8042C27.034 25.9309 26.6829 25.996 26.3283 25.996ZM26.3283 16.42C24.3233 16.42 22.4004 17.1634 20.9826 18.4867C19.5648 19.81 18.7683 21.6047 18.7683 23.476C18.7683 28.768 26.3283 36.58 26.3283 36.58C26.3283 36.58 33.8883 28.768 33.8883 23.476C33.8883 21.6047 33.0918 19.81 31.674 18.4867C30.2563 17.1634 28.3333 16.42 26.3283 16.42Z" fill="#F3F3F3"/>
<defs>
<linearGradient id="paint0_linear_1225_13" x1="6.53213" y1="2" x2="39.0479" y2="-4.35685" gradientUnits="userSpaceOnUse">
<stop stop-color="#FF8900"/>
<stop offset="1" stop-color="#CE00FF"/>
</linearGradient>
</defs>
</svg>
