<svg width="259" height="451" viewBox="0 0 259 451" fill="none" xmlns="http://www.w3.org/2000/svg">
<g filter="url(#filter0_d_1369_31)">
<path d="M150.476 136.371C130.836 147.01 148.839 176.47 148.839 176.47C158.66 194.474 158.659 196.929 156.204 203.476C154.24 208.714 145.566 218.206 136.564 224.753C118.56 238.665 136.564 257.487 152.113 249.304C196.304 226.39 201.933 198.625 202.851 183.015C204.487 155.193 178.168 121.371 150.476 136.371Z" fill="url(#paint0_linear_1369_31)"/>
<path d="M116.105 180.562C135.746 191.201 118.56 219.843 118.56 219.843C108.74 237.847 111.195 241.12 113.65 247.667C115.614 252.905 122.652 261.579 131.654 268.126C148.839 282.038 130.835 303.315 114.468 293.495C70.2772 270.581 64.6486 242.816 63.7304 227.206C62.0938 199.384 88.4131 165.562 116.105 180.562Z" fill="url(#paint1_linear_1369_31)"/>
<circle cx="155.386" cy="115.094" r="13.0937" fill="url(#paint2_linear_1369_31)"/>
<circle cx="155.386" cy="115.094" r="13.0937" stroke="white"/>
<circle cx="13.0937" cy="13.0937" r="13.0937" transform="matrix(-1 0 0 1 124.289 146.191)" fill="url(#paint3_linear_1369_31)"/>
<circle cx="13.0937" cy="13.0937" r="13.0937" transform="matrix(-1 0 0 1 124.289 146.191)" stroke="white"/>
<circle cx="180.755" cy="124.096" r="9.00189" fill="url(#paint4_linear_1369_31)"/>
<circle cx="180.755" cy="124.096" r="9.00189" stroke="white"/>
<circle cx="9.00189" cy="9.00189" r="9.00189" transform="matrix(-1 0 0 1 94.8279 159.285)" fill="url(#paint5_linear_1369_31)"/>
<circle cx="9.00189" cy="9.00189" r="9.00189" transform="matrix(-1 0 0 1 94.8279 159.285)" stroke="white"/>
<circle cx="197.122" cy="133.916" r="7.36519" fill="url(#paint6_linear_1369_31)"/>
<circle cx="197.122" cy="133.916" r="7.36519" stroke="white"/>
<circle cx="7.36519" cy="7.36519" r="7.36519" transform="matrix(-1 0 0 1 76.8241 170.742)" fill="url(#paint7_linear_1369_31)"/>
<circle cx="7.36519" cy="7.36519" r="7.36519" transform="matrix(-1 0 0 1 76.8241 170.742)" stroke="white"/>
<circle cx="208.579" cy="147.009" r="5.72848" fill="url(#paint8_linear_1369_31)"/>
<circle cx="208.579" cy="147.009" r="5.72848" stroke="white"/>
<circle cx="5.72848" cy="5.72848" r="5.72848" transform="matrix(-1 0 0 1 63.7304 185.472)" fill="url(#paint9_linear_1369_31)"/>
<circle cx="5.72848" cy="5.72848" r="5.72848" transform="matrix(-1 0 0 1 63.7304 185.472)" stroke="white"/>
<circle cx="4.09177" cy="4.09177" r="4.09177" transform="matrix(-1 0 0 1 57.1835 200.202)" fill="url(#paint10_linear_1369_31)"/>
<circle cx="4.09177" cy="4.09177" r="4.09177" transform="matrix(-1 0 0 1 57.1835 200.202)" stroke="white"/>
</g>
<path d="M146 298C152.965 316.668 257.933 352.758 192.763 449" stroke="url(#paint11_linear_1369_31)" stroke-width="3" stroke-linecap="round" stroke-dasharray="10 10"/>
<path d="M199.896 31.445C184.993 108.987 31.8272 68.3584 80.0395 154.25" stroke="url(#paint12_linear_1369_31)" stroke-opacity="0.3" stroke-width="3" stroke-linecap="round" stroke-dasharray="10 10"/>
<path d="M6.6 62.976H8.76V78H6.6V71.4H3.408V78H1.248V62.976H3.408V69.648H6.6V62.976ZM13.4158 64.056V61.92H15.6718V64.056H13.4158ZM15.6238 78H13.4638V66.288H15.6238V78ZM19.8414 75.048H22.2654V76.608L20.6094 81.36H19.8414V75.048ZM43.4951 62.976H45.6791L43.2791 78H40.2791L38.5991 66.72L36.9431 78H33.9431L31.5431 62.976H33.7751L35.4551 76.032L37.3991 62.976H39.7991L41.7431 76.032L43.4951 62.976ZM51.5681 66.288H53.9201C55.4241 66.288 56.1761 67 56.1761 68.424V72.816H51.4481V75.6C51.4481 75.872 51.4961 76.056 51.5921 76.152C51.6881 76.248 51.8801 76.296 52.1681 76.296H53.2721C53.5601 76.296 53.7521 76.248 53.8481 76.152C53.9441 76.056 53.9921 75.864 53.9921 75.576V74.616H56.1041V75.888C56.1041 77.296 55.3601 78 53.8721 78H51.5681C50.0801 78 49.3361 77.296 49.3361 75.888V68.424C49.3361 67 50.0801 66.288 51.5681 66.288ZM51.4481 71.232H54.0401V68.688C54.0401 68.416 53.9921 68.232 53.8961 68.136C53.8161 68.04 53.6321 67.992 53.3441 67.992H52.1681C51.8801 67.992 51.6881 68.04 51.5921 68.136C51.4961 68.232 51.4481 68.416 51.4481 68.688V71.232ZM62.5926 78H60.4326V61.944H62.5926V78ZM73.7222 69.984H71.5862V68.736C71.5862 68.448 71.5382 68.264 71.4422 68.184C71.3462 68.088 71.1542 68.04 70.8662 68.04H69.8342C69.5462 68.04 69.3542 68.088 69.2582 68.184C69.1622 68.264 69.1142 68.448 69.1142 68.736V75.552C69.1142 75.84 69.1622 76.032 69.2582 76.128C69.3542 76.208 69.5462 76.248 69.8342 76.248H70.8662C71.1542 76.248 71.3462 76.208 71.4422 76.128C71.5382 76.032 71.5862 75.84 71.5862 75.552V74.304H73.7222V75.888C73.7222 77.296 72.9702 78 71.4662 78H69.1862C67.6982 78 66.9542 77.296 66.9542 75.888V68.424C66.9542 67 67.6982 66.288 69.1862 66.288H71.4662C72.9702 66.288 73.7222 67 73.7222 68.424V69.984ZM80.0002 66.288H82.5682C84.0562 66.288 84.8002 67 84.8002 68.424V75.888C84.8002 77.296 84.0562 78 82.5682 78H80.0002C78.5282 78 77.7922 77.296 77.7922 75.888V68.424C77.7922 67 78.5282 66.288 80.0002 66.288ZM82.6642 75.576V68.712C82.6642 68.424 82.6162 68.232 82.5202 68.136C82.4242 68.04 82.2322 67.992 81.9442 67.992H80.6242C80.3362 67.992 80.1442 68.04 80.0482 68.136C79.9682 68.232 79.9282 68.424 79.9282 68.712V75.576C79.9282 75.864 79.9682 76.056 80.0482 76.152C80.1442 76.248 80.3362 76.296 80.6242 76.296H81.9442C82.2322 76.296 82.4242 76.248 82.5202 76.152C82.6162 76.056 82.6642 75.864 82.6642 75.576ZM97.3551 66.288H98.1951C99.6351 66.288 100.355 67 100.355 68.424V78H98.1951V68.736C98.1951 68.448 98.1471 68.264 98.0511 68.184C97.9711 68.088 97.7871 68.04 97.4991 68.04H96.6351C96.1231 68.04 95.8671 68.32 95.8671 68.88V78H93.7071V68.736C93.7071 68.448 93.6591 68.264 93.5631 68.184C93.4671 68.088 93.2751 68.04 92.9871 68.04H92.1471C91.8591 68.04 91.6511 68.104 91.5231 68.232C91.4111 68.36 91.3551 68.576 91.3551 68.88V78H89.1951V66.288H91.3551V67.224C91.5631 66.6 92.0591 66.288 92.8431 66.288H93.6831C94.7071 66.288 95.3711 66.648 95.6751 67.368C95.8671 66.648 96.4271 66.288 97.3551 66.288ZM106.928 66.288H109.28C110.784 66.288 111.536 67 111.536 68.424V72.816H106.808V75.6C106.808 75.872 106.856 76.056 106.952 76.152C107.048 76.248 107.24 76.296 107.528 76.296H108.632C108.92 76.296 109.112 76.248 109.208 76.152C109.304 76.056 109.352 75.864 109.352 75.576V74.616H111.464V75.888C111.464 77.296 110.72 78 109.232 78H106.928C105.44 78 104.696 77.296 104.696 75.888V68.424C104.696 67 105.44 66.288 106.928 66.288ZM106.808 71.232H109.4V68.688C109.4 68.416 109.352 68.232 109.256 68.136C109.176 68.04 108.992 67.992 108.704 67.992H107.528C107.24 67.992 107.048 68.04 106.952 68.136C106.856 68.232 106.808 68.416 106.808 68.688V71.232ZM125.621 68.04H124.013V75.456C124.013 75.744 124.053 75.936 124.133 76.032C124.229 76.112 124.421 76.152 124.709 76.152H125.621V78H124.085C122.581 78 121.829 77.296 121.829 75.888V68.04H120.725V66.288H121.829V64.296H124.013V66.288H125.621V68.04ZM131.399 66.288H133.967C135.455 66.288 136.199 67 136.199 68.424V75.888C136.199 77.296 135.455 78 133.967 78H131.399C129.927 78 129.191 77.296 129.191 75.888V68.424C129.191 67 129.927 66.288 131.399 66.288ZM134.063 75.576V68.712C134.063 68.424 134.015 68.232 133.919 68.136C133.823 68.04 133.631 67.992 133.343 67.992H132.023C131.735 67.992 131.543 68.04 131.447 68.136C131.367 68.232 131.327 68.424 131.327 68.712V75.576C131.327 75.864 131.367 76.056 131.447 76.152C131.543 76.248 131.735 76.296 132.023 76.296H133.343C133.631 76.296 133.823 76.248 133.919 76.152C134.015 76.056 134.063 75.864 134.063 75.576ZM150.374 75.648V73.704C150.374 73.416 150.326 73.232 150.23 73.152C150.134 73.056 149.942 73.008 149.654 73.008H148.43C146.942 73.008 146.198 72.304 146.198 70.896V68.424C146.198 67 146.942 66.288 148.43 66.288H150.182C151.686 66.288 152.438 67 152.438 68.424V69.552H150.326V68.64C150.326 68.352 150.278 68.168 150.182 68.088C150.086 67.992 149.894 67.944 149.606 67.944H149.03C148.742 67.944 148.55 67.992 148.454 68.088C148.358 68.168 148.31 68.352 148.31 68.64V70.656C148.31 70.944 148.358 71.136 148.454 71.232C148.55 71.312 148.742 71.352 149.03 71.352H150.278C151.75 71.352 152.486 72.064 152.486 73.488V75.888C152.486 77.296 151.742 78 150.254 78H148.478C146.99 78 146.246 77.296 146.246 75.888V74.736H148.358V75.648C148.358 75.936 148.406 76.128 148.502 76.224C148.598 76.304 148.79 76.344 149.078 76.344H149.654C149.942 76.344 150.134 76.304 150.23 76.224C150.326 76.128 150.374 75.936 150.374 75.648ZM160.697 68.04H159.089V75.456C159.089 75.744 159.129 75.936 159.209 76.032C159.305 76.112 159.497 76.152 159.785 76.152H160.697V78H159.161C157.657 78 156.905 77.296 156.905 75.888V68.04H155.801V66.288H156.905V64.296H159.089V66.288H160.697V68.04ZM166.571 66.288H168.923C170.427 66.288 171.179 67 171.179 68.424V72.816H166.451V75.6C166.451 75.872 166.499 76.056 166.595 76.152C166.691 76.248 166.883 76.296 167.171 76.296H168.275C168.563 76.296 168.755 76.248 168.851 76.152C168.947 76.056 168.995 75.864 168.995 75.576V74.616H171.107V75.888C171.107 77.296 170.363 78 168.875 78H166.571C165.083 78 164.339 77.296 164.339 75.888V68.424C164.339 67 165.083 66.288 166.571 66.288ZM166.451 71.232H169.043V68.688C169.043 68.416 168.995 68.232 168.899 68.136C168.819 68.04 168.635 67.992 168.347 67.992H167.171C166.883 67.992 166.691 68.04 166.595 68.136C166.499 68.232 166.451 68.416 166.451 68.688V71.232ZM179.084 66.288H179.924C181.38 66.288 182.108 67 182.108 68.424V75.888C182.108 77.296 181.38 78 179.924 78H179.084C178.3 78 177.804 77.688 177.596 77.064V81.312H175.436V66.288H177.596V67.224C177.804 66.6 178.3 66.288 179.084 66.288ZM179.948 75.552V68.736C179.948 68.448 179.9 68.264 179.804 68.184C179.708 68.088 179.516 68.04 179.228 68.04H178.388C178.1 68.04 177.892 68.104 177.764 68.232C177.652 68.36 177.596 68.576 177.596 68.88V75.408C177.596 75.712 177.652 75.928 177.764 76.056C177.892 76.184 178.1 76.248 178.388 76.248H179.228C179.516 76.248 179.708 76.208 179.804 76.128C179.9 76.032 179.948 75.84 179.948 75.552ZM198.617 62.976V64.728H196.097V78H193.937V64.728H191.417V62.976H198.617ZM206.239 66.264H206.719V68.136H205.855C204.847 68.136 204.343 68.728 204.343 69.912V78H202.183V66.288H204.343V67.728C204.471 67.312 204.695 66.968 205.015 66.696C205.351 66.408 205.759 66.264 206.239 66.264ZM214.669 66.288H216.829V78H214.669V77.064C214.461 77.688 213.965 78 213.181 78H212.317C210.877 78 210.157 77.296 210.157 75.888V68.424C210.157 67 210.877 66.288 212.317 66.288H213.181C213.965 66.288 214.461 66.6 214.669 67.224V66.288ZM213.037 76.248H213.877C214.165 76.248 214.365 76.184 214.477 76.056C214.605 75.928 214.669 75.712 214.669 75.408V68.88C214.669 68.576 214.605 68.36 214.477 68.232C214.365 68.104 214.165 68.04 213.877 68.04H213.037C212.749 68.04 212.557 68.088 212.461 68.184C212.365 68.264 212.317 68.448 212.317 68.736V75.552C212.317 75.84 212.365 76.032 212.461 76.128C212.557 76.208 212.749 76.248 213.037 76.248ZM227.974 69.984H225.838V68.736C225.838 68.448 225.79 68.264 225.694 68.184C225.598 68.088 225.406 68.04 225.118 68.04H224.086C223.798 68.04 223.606 68.088 223.51 68.184C223.414 68.264 223.366 68.448 223.366 68.736V75.552C223.366 75.84 223.414 76.032 223.51 76.128C223.606 76.208 223.798 76.248 224.086 76.248H225.118C225.406 76.248 225.598 76.208 225.694 76.128C225.79 76.032 225.838 75.84 225.838 75.552V74.304H227.974V75.888C227.974 77.296 227.222 78 225.718 78H223.438C221.95 78 221.206 77.296 221.206 75.888V68.424C221.206 67 221.95 66.288 223.438 66.288H225.718C227.222 66.288 227.974 67 227.974 68.424V69.984ZM239.604 66.288L236.916 71.88L239.604 78H237.3L234.708 71.88L237.3 66.288H239.604ZM232.164 78V61.944H234.324V78H232.164ZM245.326 66.288H247.678C249.182 66.288 249.934 67 249.934 68.424V72.816H245.206V75.6C245.206 75.872 245.254 76.056 245.35 76.152C245.446 76.248 245.638 76.296 245.926 76.296H247.03C247.318 76.296 247.51 76.248 247.606 76.152C247.702 76.056 247.75 75.864 247.75 75.576V74.616H249.862V75.888C249.862 77.296 249.118 78 247.63 78H245.326C243.838 78 243.094 77.296 243.094 75.888V68.424C243.094 67 243.838 66.288 245.326 66.288ZM245.206 71.232H247.798V68.688C247.798 68.416 247.75 68.232 247.654 68.136C247.574 68.04 247.39 67.992 247.102 67.992H245.926C245.638 67.992 245.446 68.04 245.35 68.136C245.254 68.232 245.206 68.416 245.206 68.688V71.232ZM258.246 66.264H258.726V68.136H257.862C256.854 68.136 256.35 68.728 256.35 69.912V78H254.19V66.288H256.35V67.728C256.478 67.312 256.702 66.968 257.022 66.696C257.358 66.408 257.766 66.264 258.246 66.264Z" fill="white"/>
<defs>
<filter id="filter0_d_1369_31" x="47" y="100" width="169.308" height="198" filterUnits="userSpaceOnUse" color-interpolation-filters="sRGB">
<feFlood flood-opacity="0" result="BackgroundImageFix"/>
<feColorMatrix in="SourceAlpha" type="matrix" values="0 0 0 0 0 0 0 0 0 0 0 0 0 0 0 0 0 0 127 0" result="hardAlpha"/>
<feOffset/>
<feGaussianBlur stdDeviation="1"/>
<feComposite in2="hardAlpha" operator="out"/>
<feColorMatrix type="matrix" values="0 0 0 0 1 0 0 0 0 1 0 0 0 0 1 0 0 0 1 0"/>
<feBlend mode="normal" in2="BackgroundImageFix" result="effect1_dropShadow_1369_31"/>
<feBlend mode="normal" in="SourceGraphic" in2="effect1_dropShadow_1369_31" result="shape"/>
</filter>
<linearGradient id="paint0_linear_1369_31" x1="165.078" y1="134.862" x2="165.078" y2="247.562" gradientUnits="userSpaceOnUse">
<stop stop-color="#FF8801"/>
<stop offset="0.41" stop-color="#E43E8B"/>
<stop offset="1" stop-color="#CE00FE"/>
</linearGradient>
<linearGradient id="paint1_linear_1369_31" x1="101.503" y1="179.053" x2="101.503" y2="291.753" gradientUnits="userSpaceOnUse">
<stop stop-color="#FF8801"/>
<stop offset="0.41" stop-color="#E43E8B"/>
<stop offset="1" stop-color="#CE00FE"/>
</linearGradient>
<linearGradient id="paint2_linear_1369_31" x1="155.386" y1="102" x2="155.386" y2="128.187" gradientUnits="userSpaceOnUse">
<stop stop-color="#FC8010"/>
<stop offset="0.515" stop-color="#E23993"/>
<stop offset="1" stop-color="#D006F3"/>
</linearGradient>
<linearGradient id="paint3_linear_1369_31" x1="13.0937" y1="0" x2="13.0937" y2="26.1873" gradientUnits="userSpaceOnUse">
<stop stop-color="#FC8010"/>
<stop offset="0.515" stop-color="#E23993"/>
<stop offset="1" stop-color="#D006F3"/>
</linearGradient>
<linearGradient id="paint4_linear_1369_31" x1="180.755" y1="115.094" x2="180.755" y2="133.098" gradientUnits="userSpaceOnUse">
<stop stop-color="#FC8010"/>
<stop offset="0.515" stop-color="#E23993"/>
<stop offset="1" stop-color="#D006F3"/>
</linearGradient>
<linearGradient id="paint5_linear_1369_31" x1="9.00189" y1="0" x2="9.00189" y2="18.0038" gradientUnits="userSpaceOnUse">
<stop stop-color="#FC8010"/>
<stop offset="0.515" stop-color="#E23993"/>
<stop offset="1" stop-color="#D006F3"/>
</linearGradient>
<linearGradient id="paint6_linear_1369_31" x1="197.122" y1="126.551" x2="197.122" y2="141.281" gradientUnits="userSpaceOnUse">
<stop stop-color="#FC8010"/>
<stop offset="0.515" stop-color="#E23993"/>
<stop offset="1" stop-color="#D006F3"/>
</linearGradient>
<linearGradient id="paint7_linear_1369_31" x1="7.36519" y1="0" x2="7.36519" y2="14.7304" gradientUnits="userSpaceOnUse">
<stop stop-color="#FC8010"/>
<stop offset="0.515" stop-color="#E23993"/>
<stop offset="1" stop-color="#D006F3"/>
</linearGradient>
<linearGradient id="paint8_linear_1369_31" x1="208.579" y1="141.281" x2="208.579" y2="152.738" gradientUnits="userSpaceOnUse">
<stop stop-color="#FC8010"/>
<stop offset="0.515" stop-color="#E23993"/>
<stop offset="1" stop-color="#D006F3"/>
</linearGradient>
<linearGradient id="paint9_linear_1369_31" x1="5.72848" y1="0" x2="5.72848" y2="11.457" gradientUnits="userSpaceOnUse">
<stop stop-color="#FC8010"/>
<stop offset="0.515" stop-color="#E23993"/>
<stop offset="1" stop-color="#D006F3"/>
</linearGradient>
<linearGradient id="paint10_linear_1369_31" x1="4.09177" y1="0" x2="4.09177" y2="8.18354" gradientUnits="userSpaceOnUse">
<stop stop-color="#FC8010"/>
<stop offset="0.515" stop-color="#E23993"/>
<stop offset="1" stop-color="#D006F3"/>
</linearGradient>
<linearGradient id="paint11_linear_1369_31" x1="171.371" y1="299.245" x2="171.371" y2="346.121" gradientUnits="userSpaceOnUse">
<stop stop-color="#FB7D16"/>
<stop offset="0.54" stop-color="#E0349E"/>
<stop offset="1" stop-color="#CF03F7"/>
</linearGradient>
<linearGradient id="paint12_linear_1369_31" x1="153.584" y1="45.1538" x2="119.355" y2="137.961" gradientUnits="userSpaceOnUse">
<stop stop-color="#FB7D16"/>
<stop offset="0.54" stop-color="#E0349E"/>
<stop offset="1" stop-color="#CF03F7"/>
</linearGradient>
</defs>
</svg>
