<svg width="55" height="55" viewBox="0 0 55 55" fill="none" xmlns="http://www.w3.org/2000/svg">
<rect x="1.6" y="1.6" width="51.8" height="51.8" rx="25.9" stroke="url(#paint0_linear_1225_5)" stroke-width="2.8"/>
<path d="M28.9312 17.5926C28.8394 17.516 28.7306 17.4628 28.614 17.4372C28.4974 17.4117 28.3764 17.4147 28.2611 17.4459C28.1459 17.4771 28.0398 17.5356 27.9519 17.6165C27.8639 17.6974 27.7967 17.7984 27.7558 17.9108L25.7083 23.5491L23.4597 21.3642C23.3842 21.2907 23.294 21.2342 23.1951 21.1982C23.0962 21.1623 22.9909 21.1477 22.886 21.1556C22.7811 21.1634 22.679 21.1935 22.5865 21.2437C22.494 21.294 22.4132 21.3634 22.3494 21.4473C20.3336 24.0961 19.3098 26.7608 19.3098 29.3666C19.3098 31.545 20.1727 33.6341 21.7086 35.1744C23.2445 36.7147 25.3277 37.58 27.4998 37.58C29.6719 37.58 31.7551 36.7147 33.291 35.1744C34.8269 33.6341 35.6898 31.545 35.6898 29.3666C35.6898 23.8179 30.9629 19.2866 28.9312 17.5926ZM32.7014 30.2384C32.5083 31.3199 31.9895 32.316 31.2148 33.0928C30.44 33.8696 29.4466 34.3897 28.3681 34.5831C28.3273 34.5901 28.2858 34.5936 28.2444 34.5934C28.0576 34.5933 27.8777 34.5229 27.7403 34.396C27.6029 34.2692 27.518 34.0951 27.5026 33.9085C27.4871 33.7218 27.5422 33.5362 27.6568 33.3883C27.7714 33.2405 27.9373 33.1412 28.1215 33.1103C29.6636 32.8499 30.9722 31.5376 31.2337 29.9883C31.2668 29.7929 31.3759 29.6188 31.537 29.5042C31.6981 29.3895 31.898 29.3437 32.0927 29.3769C32.2875 29.4101 32.4611 29.5195 32.5754 29.681C32.6898 29.8426 32.7354 30.0431 32.7023 30.2384H32.7014Z" fill="#4ECB71"/>
<path d="M28.9312 17.5926C28.8394 17.516 28.7306 17.4628 28.614 17.4372C28.4974 17.4117 28.3764 17.4147 28.2611 17.4459C28.1459 17.4771 28.0398 17.5356 27.9519 17.6165C27.8639 17.6974 27.7967 17.7984 27.7558 17.9108L25.7083 23.5491L23.4597 21.3642C23.3842 21.2907 23.294 21.2342 23.1951 21.1982C23.0962 21.1623 22.9909 21.1477 22.886 21.1556C22.7811 21.1634 22.679 21.1935 22.5865 21.2437C22.494 21.294 22.4132 21.3634 22.3494 21.4473C20.3336 24.0961 19.3098 26.7608 19.3098 29.3666C19.3098 31.545 20.1727 33.6341 21.7086 35.1744C23.2445 36.7147 25.3277 37.58 27.4998 37.58C29.6719 37.58 31.7551 36.7147 33.291 35.1744C34.8269 33.6341 35.6898 31.545 35.6898 29.3666C35.6898 23.8179 30.9629 19.2866 28.9312 17.5926ZM32.7014 30.2384C32.5083 31.3199 31.9895 32.316 31.2148 33.0928C30.44 33.8696 29.4466 34.3897 28.3681 34.5831C28.3273 34.5901 28.2858 34.5936 28.2444 34.5934C28.0576 34.5933 27.8777 34.5229 27.7403 34.396C27.6029 34.2692 27.518 34.0951 27.5026 33.9085C27.4871 33.7218 27.5422 33.5362 27.6568 33.3883C27.7714 33.2405 27.9373 33.1412 28.1215 33.1103C29.6636 32.8499 30.9722 31.5376 31.2337 29.9883C31.2668 29.7929 31.3759 29.6188 31.537 29.5042C31.6981 29.3895 31.898 29.3437 32.0927 29.3769C32.2875 29.4101 32.4611 29.5195 32.5754 29.681C32.6898 29.8426 32.7354 30.0431 32.7023 30.2384H32.7014Z" fill="#F3F3F3"/>
<defs>
<linearGradient id="paint0_linear_1225_5" x1="7.704" y1="3" x2="40.2198" y2="-3.35685" gradientUnits="userSpaceOnUse">
<stop stop-color="#FF8900"/>
<stop offset="1" stop-color="#CE00FF"/>
</linearGradient>
</defs>
</svg>
