<svg width="53" height="53" viewBox="0 0 53 53" fill="none" xmlns="http://www.w3.org/2000/svg">
<rect x="1.65649" y="1.90698" width="49" height="49" rx="24.5" stroke="url(#paint0_linear_1225_17)" stroke-width="2.8"/>
<path fill-rule="evenodd" clip-rule="evenodd" d="M26.1563 37.3008C27.3973 37.3008 28.6261 37.0564 29.7727 36.5815C30.9192 36.1066 31.9609 35.4105 32.8385 34.533C33.716 33.6554 34.4121 32.6137 34.887 31.4672C35.3619 30.3206 35.6063 29.0918 35.6063 27.8508C35.6063 26.6098 35.3619 25.381 34.887 24.2344C34.4121 23.0879 33.716 22.0462 32.8385 21.1686C31.9609 20.2911 30.9192 19.5951 29.7727 19.1201C28.6261 18.6452 27.3973 18.4008 26.1563 18.4008C23.65 18.4008 21.2464 19.3964 19.4741 21.1686C17.7019 22.9409 16.7063 25.3445 16.7063 27.8508C16.7063 30.3571 17.7019 32.7607 19.4741 34.533C21.2464 36.3052 23.65 37.3008 26.1563 37.3008ZM26.1563 22.8633C26.3652 22.8633 26.5655 22.9463 26.7131 23.094C26.8608 23.2416 26.9438 23.4419 26.9438 23.6508V27.8508C26.9438 28.0597 26.8608 28.26 26.7131 28.4077C26.5655 28.5553 26.3652 28.6383 26.1563 28.6383C25.9474 28.6383 25.7471 28.5553 25.5995 28.4077C25.4518 28.26 25.3688 28.0597 25.3688 27.8508V23.6508C25.3688 23.4419 25.4518 23.2416 25.5995 23.094C25.7471 22.9463 25.9474 22.8633 26.1563 22.8633ZM23.2688 16.3008C23.2688 16.0919 23.3518 15.8916 23.4995 15.744C23.6471 15.5963 23.8474 15.5133 24.0563 15.5133H28.2563C28.4652 15.5133 28.6655 15.5963 28.8131 15.744C28.9608 15.8916 29.0438 16.0919 29.0438 16.3008C29.0438 16.5097 28.9608 16.71 28.8131 16.8577C28.6655 17.0053 28.4652 17.0883 28.2563 17.0883H24.0563C23.8474 17.0883 23.6471 17.0053 23.4995 16.8577C23.3518 16.71 23.2688 16.5097 23.2688 16.3008Z" fill="#4ECB71"/>
<path fill-rule="evenodd" clip-rule="evenodd" d="M26.1563 37.3008C27.3973 37.3008 28.6261 37.0564 29.7727 36.5815C30.9192 36.1066 31.9609 35.4105 32.8385 34.533C33.716 33.6554 34.4121 32.6137 34.887 31.4672C35.3619 30.3206 35.6063 29.0918 35.6063 27.8508C35.6063 26.6098 35.3619 25.381 34.887 24.2344C34.4121 23.0879 33.716 22.0462 32.8385 21.1686C31.9609 20.2911 30.9192 19.5951 29.7727 19.1201C28.6261 18.6452 27.3973 18.4008 26.1563 18.4008C23.65 18.4008 21.2464 19.3964 19.4741 21.1686C17.7019 22.9409 16.7063 25.3445 16.7063 27.8508C16.7063 30.3571 17.7019 32.7607 19.4741 34.533C21.2464 36.3052 23.65 37.3008 26.1563 37.3008ZM26.1563 22.8633C26.3652 22.8633 26.5655 22.9463 26.7131 23.094C26.8608 23.2416 26.9438 23.4419 26.9438 23.6508V27.8508C26.9438 28.0597 26.8608 28.26 26.7131 28.4077C26.5655 28.5553 26.3652 28.6383 26.1563 28.6383C25.9474 28.6383 25.7471 28.5553 25.5995 28.4077C25.4518 28.26 25.3688 28.0597 25.3688 27.8508V23.6508C25.3688 23.4419 25.4518 23.2416 25.5995 23.094C25.7471 22.9463 25.9474 22.8633 26.1563 22.8633ZM23.2688 16.3008C23.2688 16.0919 23.3518 15.8916 23.4995 15.744C23.6471 15.5963 23.8474 15.5133 24.0563 15.5133H28.2563C28.4652 15.5133 28.6655 15.5963 28.8131 15.744C28.9608 15.8916 29.0438 16.0919 29.0438 16.3008C29.0438 16.5097 28.9608 16.71 28.8131 16.8577C28.6655 17.0053 28.4652 17.0883 28.2563 17.0883H24.0563C23.8474 17.0883 23.6471 17.0053 23.4995 16.8577C23.3518 16.71 23.2688 16.5097 23.2688 16.3008Z" fill="#F3F3F3"/>
<defs>
<linearGradient id="paint0_linear_1225_17" x1="6.36049" y1="1.90699" x2="38.8762" y2="-4.44986" gradientUnits="userSpaceOnUse">
<stop stop-color="#FF8900"/>
<stop offset="1" stop-color="#CE00FF"/>
</linearGradient>
</defs>
</svg>
